<svg width="24" height="24" viewBox="0 0 24 24" fill="none" xmlns="http://www.w3.org/2000/svg">
<g clip-path="url(#clip0_9_132)">
<path d="M4.3815e-07 12.1965C4.3815e-07 12.8638 0.255206 13.4906 0.727176 13.9626L7.64816 20.8868C8.16978 21.4084 9.01548 21.4084 9.53604 20.8868C10.0582 20.3652 10.0571 19.5157 9.53604 18.9936L3.89055 13.3502L22.6738 13.3502C23.4116 13.3497 24 12.7448 24 12.0064C24 12.0048 24 11.993 24 11.9914C24 11.2536 23.4116 10.6444 22.6738 10.6444L3.89002 10.6444L9.53444 5.00426C10.0566 4.4821 10.0566 3.63533 9.53444 3.11371C9.01281 2.59102 8.16711 2.59155 7.64549 3.11424L0.727176 10.039C0.254672 10.5099 4.3815e-07 11.1383 4.3815e-07 11.8056C4.3815e-07 11.8713 4.3815e-07 12.1308 4.3815e-07 12.1965Z" fill="white"/>
</g>
<defs>
<clipPath id="clip0_9_132">
<rect width="24" height="24" fill="white" transform="translate(24 24) rotate(-180)"/>
</clipPath>
</defs>
</svg>
